<?xml version="1.0" standalone="no"?><svg xmlns="http://www.w3.org/2000/svg" viewBox="0 0 1440 320"><path fill="#ff4250" fill-opacity="1" d="M0,224L0,32L130.9,32L130.9,288L261.8,288L261.8,96L392.7,96L392.7,128L523.6,128L523.6,192L654.5,192L654.5,256L785.5,256L785.5,128L916.4,128L916.4,64L1047.3,64L1047.3,256L1178.2,256L1178.2,0L1309.1,0L1309.1,96L1440,96L1440,320L1309.1,320L1309.1,320L1178.2,320L1178.2,320L1047.3,320L1047.3,320L916.4,320L916.4,320L785.5,320L785.5,320L654.5,320L654.5,320L523.6,320L523.6,320L392.7,320L392.7,320L261.8,320L261.8,320L130.9,320L130.9,320L0,320L0,320Z"></path></svg>